<?xml version="1.0" encoding="utf-8"?>
<!-- Generator: Adobe Illustrator 19.2.1, SVG Export Plug-In . SVG Version: 6.00 Build 0)  -->
<svg version="1.1" id="Layer_1" xmlns="http://www.w3.org/2000/svg" xmlns:xlink="http://www.w3.org/1999/xlink" x="0px" y="0px"
	 viewBox="0 0 974.6 329.8" enable-background="new 0 0 974.6 329.8" xml:space="preserve">
<g id="Trupfy">
	<g id="Glow" opacity="0.75">
		<path id="T_2_" fill="#F9E373" d="M17.9,29.4c4,0,7.1,1.3,9.4,3.9c2.3,2.6,3.5,5.4,3.5,8.6c0,3-1.2,5.8-3.5,8.4
			c-2.3,2.7-5.5,4-9.4,4c-3.8,0-6.9-1.3-9.3-4C6.2,47.6,5,44.8,5,41.8c0-3.1,1.2-6,3.6-8.6C11,30.7,14.1,29.4,17.9,29.4z M13.8,39.2
			c-0.9,1-1.4,1.9-1.4,2.6c0,0.7,0.5,1.6,1.4,2.6c0.9,1,2.3,1.5,4.1,1.5c2,0,3.4-0.5,4.2-1.5c0.8-1,1.2-1.9,1.2-2.6
			c0-0.7-0.4-1.6-1.2-2.6c-0.8-1-2.2-1.5-4.2-1.5C16.1,37.7,14.7,38.2,13.8,39.2z M157.1,46.5l-39.9,77.5v6.4l-50.5,1.1L23.6,57.6
			l52,26L86,41.6l20.6,41L157.1,46.5z M103.9,94.4l-15.4-31L80.6,95L43.7,76.7l27,46.5l39.1-0.8v-0.6l25.8-50.1L103.9,94.4z
			 M174.7,184.7l-21.1,2.8v113.8l-70.1,9.4l2.7-115.5l-23.8,2.5l1.7-66.7l116.7-11.1L174.7,184.7z M172.5,129.1l-101.1,9.7
			l-1.2,49.8l23.8-2.8l-2.7,115.5l55-7.5V180l21.6-2.8L172.5,129.1z M84.8,5c4.3,0,7.7,1.5,10.3,4.6c2.6,3,3.8,6.3,3.8,9.8
			c0,3.5-1.3,6.8-3.8,9.8c-2.6,3-6,4.6-10.3,4.6c-4.5,0-8-1.5-10.5-4.6c-2.6-3-3.8-6.3-3.8-9.8c0-3.5,1.3-6.8,3.8-9.8
			C76.8,6.5,80.3,5,84.8,5z M79.6,15.4c-1.2,1.4-1.7,2.7-1.7,4c0,1.3,0.6,2.6,1.7,4c1.2,1.4,2.9,2.1,5.2,2.1c2.1,0,3.8-0.7,5-2.1
			c1.2-1.4,1.7-2.7,1.7-4c0-1.3-0.6-2.6-1.7-4c-1.2-1.4-2.8-2.1-5-2.1C82.5,13.3,80.7,14,79.6,15.4z M163.6,15.8
			c4,0,7.2,1.3,9.8,3.9c2.6,2.6,3.8,5.5,3.8,8.9s-1.3,6.3-3.8,9c-2.6,2.7-5.8,4-9.8,4c-4,0-7.2-1.3-9.7-4c-2.5-2.7-3.7-5.7-3.7-9
			s1.2-6.3,3.7-8.9C156.4,17.1,159.6,15.8,163.6,15.8z M159.1,25.6c-1,1-1.5,2-1.5,2.9c0,0.9,0.5,1.9,1.5,3c1,1.1,2.5,1.7,4.5,1.7
			c2,0,3.5-0.6,4.6-1.7c1.1-1.1,1.6-2.1,1.6-3c0-0.9-0.5-1.9-1.6-2.9c-1.1-1-2.6-1.5-4.6-1.5C161.6,24.1,160.1,24.6,159.1,25.6z"/>
		<path id="R_2_" fill="#F9E373" d="M321.2,220.2L282,260.9l-36.4-60.4l-0.5,25.5l-61.7-7.2l-3.2-172.2c28.4-3.7,53-6.6,73.8-8.9
			c13.4-1.5,24.7-0.3,33.9,3.6c9.2,3.9,16.2,9.6,20.9,17c4.7,7.5,7.4,15.8,8.1,25.1c0.7,9.2-0.5,18.6-3.3,28
			c-2.9,9.4-7.5,18.6-13.8,27.4c-6.3,8.9-12.7,15.3-19.3,19.4L321.2,220.2z M271.9,155.4c8.9-6.5,16.3-13.8,22.1-21.9
			c5.8-8.1,10-16.4,12.6-24.8c2.6-8.4,3.7-16.5,3.1-24.4c-0.6-7.8-2.8-14.9-6.8-21c-4-6.2-9.9-11-17.8-14.4
			c-7.9-3.4-20.7-4-38.4-1.8c0-0.2-3.8,0.1-11.5,1c-7.7,0.8-23.4,2.8-47.2,6l2.7,157.6l47.3,5.3l0.5-43.5l45.1,73.7l26.3-28
			L271.9,155.4z M247.6,95.1c2.8-0.1,4.9,0.4,6.2,1.5c1.3,1.1,2.2,2.7,2.7,4.7c0.5,2,0.7,3.7,0.5,5.1c-0.2,1.4-0.2,2.2-0.2,2.4
			c-0.2,1.5-0.8,3.3-2,5.5c-1.2,2.2-2.8,4.4-5,6.6c-2.1,2.2-4.7,3.9-7.7,5.1c-3,1.2-5.5-0.1-7.7-4l1.2-23.5
			C240.8,96.4,244.8,95.2,247.6,95.1z M242.9,104.4l-1.5,24.6c-5.9-1.1-7.3-3.3-4.1-6.6c3.2-3.3,5.7-5.9,7.3-7.6
			c1.6-1.8,3.2-4,4.7-6.8c0,0.2,0.1-0.3,0.2-1.4c0.2-1.1,0.2-1.9,0-2.5c-0.2-0.6-0.2-0.8-0.1-0.8c0.1,0-0.7,0-2.2,0.1
			C245.6,103.5,244.2,103.9,242.9,104.4z"/>
		<path id="U_2_" fill="#F9E373" d="M373.4,174.2h18.3c-3.5,10.9-8.6,18.4-15.5,22.4c-6.9,4.1-14.6,6.1-23.2,6.1
			c-11.9,0-21.5-3.9-28.7-11.6c-7.3-7.8-10.9-18.4-10.9-31.8V67l58.7-5.3l-1.2,83.9c0,1.3-0.2,1.8-0.5,1.4c-0.3-0.4-0.4-0.6-0.2-0.6
			c-0.8,0.6-1.2,0.4-1.2-0.6L367.7,67l60.2-5.3l-3,137.1l-51.5,2.5V174.2z M380.9,192.7l36.9-1.7l2.7-120.5l-45.1,3.9l1,71.2
			c0.2,3.7-0.4,6.1-1.7,7.3c-1.3,1.2-2.8,1.8-4.5,1.8c-2.1,0-3.8-0.6-5-1.9c-1.2-1.3-1.7-3.7-1.7-7.2l1.2-75l-43.9,3.9v84.7
			c0,11.1,2.9,19.7,8.7,25.9c5.8,6.2,13.6,9.3,23.5,9.3c7.4,0,13.9-1.6,19.3-4.8c5.5-3.2,8.4-5.6,8.9-7.1h-0.5V192.7z"/>
		<path id="M_2_" fill="#F9E373" d="M479.7,36.3l48.3,68.4l45.8-52.9L624.7,208l-58.5,53.4l-17.3-57.3l-21.8,42.4l-27.5-46.8
			l-15.1,51.5l-57.7-41.8L479.7,36.3z M435.6,206l44.8,32.4l16.8-57.9l29.2,50.1l24-46.8l19.1,63.4l46.3-41.8L570.9,67l-43.4,50.1
			l-45.1-63.7L435.6,206z"/>
		<path id="P_2_" fill="#F9E373" d="M681.9,98.3v10.2c5.6-6.8,8.1-10.1,7.6-9.8c-0.6,0.3,2.8,0.4,10.3,0.4c9.1,0,17.3,2.2,24.5,6.6
			c7.3,4.4,13.3,10,18.1,16.6c4.8,6.6,8.4,14,10.9,22.2c2.5,8.1,3.7,16.2,3.7,24.4c0,8.9-1.3,17.4-4,25.8
			c-2.6,8.3-6.5,15.8-11.5,22.4c-5,6.6-11.3,12-18.7,16.2s-15.7,6.2-24.8,6.2c-4.6,0-7.3-0.1-8.1-0.3c-0.7-0.2-2.8-2-6.1-5.5l1,36.3
			l-56.5,5.3l-2.2-171.4L681.9,98.3z M633.6,111.3l2,155.1l41.6-4.2l-0.5-24.9c-8.8-9.2-8.4-12.5,1.1-9.8c9.5,2.7,16.2,4,20.2,4
			c7.9,0,15.1-1.8,21.6-5.5c6.4-3.7,11.9-8.4,16.4-14.3c4.5-5.8,7.8-12.4,10.2-19.8c2.3-7.4,3.5-15,3.5-23c0-7.2-1.1-14.4-3.3-21.7
			c-2.2-7.3-5.5-13.8-9.7-19.7c-4.2-5.8-9.5-10.6-15.7-14.4c-6.3-3.8-13.3-5.7-21.1-5.7c-6.3,0-14.6,2.8-25,8.4
			c-10.4,5.6-10.5,2.1-0.2-10.7v2.2L633.6,111.3z M689.1,188.4c-2.1,0.3-4.2,0.1-6.1-0.4c-1.9-0.6-3.6-1.6-5.1-3
			c-1.5-1.5-2.7-3.3-3.7-5.5c-2.3-5-2.4-10.1-0.4-15.4c2.1-5.3,5.7-9.3,10.8-12c4.8-2.6,9.2-3.2,13.1-1.8c4,1.4,6.9,4.3,8.7,8.7
			c2.1,4.8,2.2,9.9,0.2,15.2c-2,5.4-5.5,9.3-10.7,11.9C693.6,187.4,691.3,188.2,689.1,188.4z M693.1,178.6c3.3-1.8,5.5-4.3,6.7-7.5
			c1.2-3.1,1.2-6,0-8.6c-1-2.2-2.5-3.7-4.5-4.4c-2-0.7-4.5-0.3-7.4,1.4c-3.5,1.8-5.8,4.3-7.1,7.5c-1.2,3.1-1.2,6.1,0.1,8.9
			c0.5,1.1,1.1,2,1.7,2.6c0.7,0.6,1.4,1.1,2.4,1.4c0.9,0.3,2,0.4,3.3,0.3C689.7,180,691.3,179.5,693.1,178.6z"/>
		<path id="F_2_" fill="#F9E373" d="M740.9,190l118.9-55.4l-7.4,72.8l-45.8,1.9l0.2-1.4l36.2-2.5l3.7,59.3l-38.9,2.5l-2,52.1
			l-63.9,1.7L740.9,190z M749.1,312.4l49.6-1.1l2-51.8l38.2-2.8l-2.7-42.4l-37.9,2.8l2-15.8l45.6-1.9l5.7-52.6L748.3,195
			L749.1,312.4z"/>
		<path id="Y_3_" fill="#F9E373" d="M907.9,209.4l10.7-53.4l56,5.5l-42.9,168.4l-60-5.3l18.1-54.5l-36.4-106.3l58.2-8l14.6,53.7
			H907.9z M916.3,201l-9.9-36.3l-42.6,5.8l33.9,99.4l-15.6,47.1l44.1,3.9l38.7-152.3l-40.4-3.9l-7.4,36.3H916.3z"/>
	</g>
	<g id="Color">
		<g id="Outline">
			<path id="T_1_" d="M12.9,24.4c4,0,7.1,1.3,9.4,3.9c2.3,2.6,3.5,5.4,3.5,8.6c0,3-1.2,5.8-3.5,8.4c-2.3,2.7-5.5,4-9.4,4
				c-3.8,0-6.9-1.3-9.3-4C1.2,42.6,0,39.8,0,36.8c0-3.1,1.2-6,3.6-8.6C6,25.7,9.1,24.4,12.9,24.4z M8.8,34.2c-0.9,1-1.4,1.9-1.4,2.6
				c0,0.7,0.5,1.6,1.4,2.6c0.9,1,2.3,1.5,4.1,1.5c2,0,3.4-0.5,4.2-1.5c0.8-1,1.2-1.9,1.2-2.6c0-0.7-0.4-1.6-1.2-2.6
				c-0.8-1-2.2-1.5-4.2-1.5C11.1,32.7,9.7,33.2,8.8,34.2z M152.1,41.5l-39.9,77.5v6.4l-50.5,1.1L18.6,52.6l52,26L81,36.6l20.6,41
				L152.1,41.5z M98.9,89.4l-15.4-31L75.6,90L38.7,71.7l27,46.5l39.1-0.8v-0.6l25.8-50.1L98.9,89.4z M169.7,179.7l-21.1,2.8v113.8
				l-70.1,9.4l2.7-115.5l-23.8,2.5l1.7-66.7l116.7-11.1L169.7,179.7z M167.5,124.1l-101.1,9.7l-1.2,49.8l23.8-2.8l-2.7,115.5l55-7.5
				V175l21.6-2.8L167.5,124.1z M79.8,0c4.3,0,7.7,1.5,10.3,4.6c2.6,3,3.8,6.3,3.8,9.8c0,3.5-1.3,6.8-3.8,9.8c-2.6,3-6,4.6-10.3,4.6
				c-4.5,0-8-1.5-10.5-4.6c-2.6-3-3.8-6.3-3.8-9.8c0-3.5,1.3-6.8,3.8-9.8C71.8,1.5,75.3,0,79.8,0z M74.6,10.4
				c-1.2,1.4-1.7,2.7-1.7,4c0,1.3,0.6,2.6,1.7,4c1.2,1.4,2.9,2.1,5.2,2.1c2.1,0,3.8-0.7,5-2.1c1.2-1.4,1.7-2.7,1.7-4
				c0-1.3-0.6-2.6-1.7-4c-1.2-1.4-2.8-2.1-5-2.1C77.5,8.3,75.7,9,74.6,10.4z M158.6,10.8c4,0,7.2,1.3,9.8,3.9
				c2.6,2.6,3.8,5.5,3.8,8.9s-1.3,6.3-3.8,9c-2.6,2.7-5.8,4-9.8,4c-4,0-7.2-1.3-9.7-4c-2.5-2.7-3.7-5.7-3.7-9s1.2-6.3,3.7-8.9
				C151.4,12.1,154.6,10.8,158.6,10.8z M154.1,20.6c-1,1-1.5,2-1.5,2.9c0,0.9,0.5,1.9,1.5,3c1,1.1,2.5,1.7,4.5,1.7
				c2,0,3.5-0.6,4.6-1.7c1.1-1.1,1.6-2.1,1.6-3c0-0.9-0.5-1.9-1.6-2.9c-1.1-1-2.6-1.5-4.6-1.5C156.6,19.1,155.1,19.6,154.1,20.6z"/>
			<path id="R_1_" d="M316.2,215.2L277,255.9l-36.4-60.4l-0.5,25.5l-61.7-7.2l-3.2-172.2c28.4-3.7,53-6.6,73.8-8.9
				c13.4-1.5,24.7-0.3,33.9,3.6c9.2,3.9,16.2,9.6,20.9,17c4.7,7.5,7.4,15.8,8.1,25.1c0.7,9.2-0.5,18.6-3.3,28
				c-2.9,9.4-7.5,18.6-13.8,27.4c-6.3,8.9-12.7,15.3-19.3,19.4L316.2,215.2z M266.9,150.4c8.9-6.5,16.3-13.8,22.1-21.9
				c5.8-8.1,10-16.4,12.6-24.8c2.6-8.4,3.7-16.5,3.1-24.4c-0.6-7.8-2.8-14.9-6.8-21c-4-6.2-9.9-11-17.8-14.4
				c-7.9-3.4-20.7-4-38.4-1.8c0-0.2-3.8,0.1-11.5,1c-7.7,0.8-23.4,2.8-47.2,6l2.7,157.6l47.3,5.3l0.5-43.5l45.1,73.7l26.3-28
				L266.9,150.4z M242.6,90.1c2.8-0.1,4.9,0.4,6.2,1.5c1.3,1.1,2.2,2.7,2.7,4.7c0.5,2,0.7,3.7,0.5,5.1c-0.2,1.4-0.2,2.2-0.2,2.4
				c-0.2,1.5-0.8,3.3-2,5.5c-1.2,2.2-2.8,4.4-5,6.6c-2.1,2.2-4.7,3.9-7.7,5.1c-3,1.2-5.5-0.1-7.7-4l1.2-23.5
				C235.8,91.4,239.8,90.2,242.6,90.1z M237.9,99.4l-1.5,24.6c-5.9-1.1-7.3-3.3-4.1-6.6c3.2-3.3,5.7-5.9,7.3-7.6
				c1.6-1.8,3.2-4,4.7-6.8c0,0.2,0.1-0.3,0.2-1.4c0.2-1.1,0.2-1.9,0-2.5c-0.2-0.6-0.2-0.8-0.1-0.8c0.1,0-0.7,0-2.2,0.1
				C240.6,98.5,239.2,98.9,237.9,99.4z"/>
			<path id="U_1_" d="M368.4,169.2h18.3c-3.5,10.9-8.6,18.4-15.5,22.4c-6.9,4.1-14.6,6.1-23.2,6.1c-11.9,0-21.5-3.9-28.7-11.6
				c-7.3-7.8-10.9-18.4-10.9-31.8V62l58.7-5.3l-1.2,83.9c0,1.3-0.2,1.8-0.5,1.4c-0.3-0.4-0.4-0.6-0.2-0.6c-0.8,0.6-1.2,0.4-1.2-0.6
				L362.7,62l60.2-5.3l-3,137.1l-51.5,2.5V169.2z M375.9,187.7l36.9-1.7l2.7-120.5l-45.1,3.9l1,71.2c0.2,3.7-0.4,6.1-1.7,7.3
				c-1.3,1.2-2.8,1.8-4.5,1.8c-2.1,0-3.8-0.6-5-1.9c-1.2-1.3-1.7-3.7-1.7-7.2l1.2-75l-43.9,3.9v84.7c0,11.1,2.9,19.7,8.7,25.9
				c5.8,6.2,13.6,9.3,23.5,9.3c7.4,0,13.9-1.6,19.3-4.8c5.5-3.2,8.4-5.6,8.9-7.1h-0.5V187.7z"/>
			<path id="M_1_" d="M474.7,31.3l48.3,68.4l45.8-52.9L619.7,203l-58.5,53.4l-17.3-57.3l-21.8,42.4l-27.5-46.8l-15.1,51.5
				l-57.7-41.8L474.7,31.3z M430.6,201l44.8,32.4l16.8-57.9l29.2,50.1l24-46.8l19.1,63.4l46.3-41.8L565.9,62l-43.4,50.1l-45.1-63.7
				L430.6,201z"/>
			<path id="P_1_" d="M676.9,93.3v10.2c5.6-6.8,8.1-10.1,7.6-9.8c-0.6,0.3,2.8,0.4,10.3,0.4c9.1,0,17.3,2.2,24.5,6.6
				c7.3,4.4,13.3,10,18.1,16.6c4.8,6.6,8.4,14,10.9,22.2c2.5,8.1,3.7,16.2,3.7,24.4c0,8.9-1.3,17.4-4,25.8
				c-2.6,8.3-6.5,15.8-11.5,22.4c-5,6.6-11.3,12-18.7,16.2s-15.7,6.2-24.8,6.2c-4.6,0-7.3-0.1-8.1-0.3c-0.7-0.2-2.8-2-6.1-5.5
				l1,36.3l-56.5,5.3l-2.2-171.4L676.9,93.3z M628.6,106.3l2,155.1l41.6-4.2l-0.5-24.9c-8.8-9.2-8.4-12.5,1.1-9.8
				c9.5,2.7,16.2,4,20.2,4c7.9,0,15.1-1.8,21.6-5.5c6.4-3.7,11.9-8.4,16.4-14.3c4.5-5.8,7.8-12.4,10.2-19.8c2.3-7.4,3.5-15,3.5-23
				c0-7.2-1.1-14.4-3.3-21.7c-2.2-7.3-5.5-13.8-9.7-19.7c-4.2-5.8-9.5-10.6-15.7-14.4c-6.3-3.8-13.3-5.7-21.1-5.7
				c-6.3,0-14.6,2.8-25,8.4c-10.4,5.6-10.5,2.1-0.2-10.7v2.2L628.6,106.3z M684.1,183.4c-2.1,0.3-4.2,0.1-6.1-0.4
				c-1.9-0.6-3.6-1.6-5.1-3c-1.5-1.5-2.7-3.3-3.7-5.5c-2.3-5-2.4-10.1-0.4-15.4c2.1-5.3,5.7-9.3,10.8-12c4.8-2.6,9.2-3.2,13.1-1.8
				c4,1.4,6.9,4.3,8.7,8.7c2.1,4.8,2.2,9.9,0.2,15.2c-2,5.4-5.5,9.3-10.7,11.9C688.6,182.4,686.3,183.2,684.1,183.4z M688.1,173.6
				c3.3-1.8,5.5-4.3,6.7-7.5c1.2-3.1,1.2-6,0-8.6c-1-2.2-2.5-3.7-4.5-4.4c-2-0.7-4.5-0.3-7.4,1.4c-3.5,1.8-5.8,4.3-7.1,7.5
				c-1.2,3.1-1.2,6.1,0.1,8.9c0.5,1.1,1.1,2,1.7,2.6c0.7,0.6,1.4,1.1,2.4,1.4c0.9,0.3,2,0.4,3.3,0.3
				C684.7,175,686.3,174.5,688.1,173.6z"/>
			<path id="F_1_" d="M735.9,185l118.9-55.4l-7.4,72.8l-45.8,1.9l0.2-1.4l36.2-2.5l3.7,59.3l-38.9,2.5l-2,52.1l-63.9,1.7L735.9,185z
				 M744.1,307.4l49.6-1.1l2-51.8l38.2-2.8l-2.7-42.4l-37.9,2.8l2-15.8l45.6-1.9l5.7-52.6L743.3,190L744.1,307.4z"/>
			<path id="Y_2_" d="M902.9,204.4l10.7-53.4l56,5.5l-42.9,168.4l-60-5.3l18.1-54.5l-36.4-106.3l58.2-8l14.6,53.7H902.9z M911.3,196
				l-9.9-36.3l-42.6,5.8l33.9,99.4l-15.6,47.1l44.1,3.9l38.7-152.3l-40.4-3.9l-7.4,36.3H911.3z"/>
		</g>
		<g>
			<path id="T" fill="#EF9C07" d="M8.8,34.2c-0.9,1-1.4,1.9-1.4,2.6c0,0.7,0.5,1.6,1.4,2.6c0.9,1,2.3,1.5,4.1,1.5
				c2,0,3.4-0.5,4.2-1.5c0.8-1,1.2-1.9,1.2-2.6c0-0.7-0.4-1.6-1.2-2.6c-0.8-1-2.2-1.5-4.2-1.5C11.1,32.7,9.7,33.2,8.8,34.2z
				 M98.9,89.4l-15.4-31L75.6,90L38.7,71.7l27,46.5l39.2-0.8v-0.5l25.8-50.1L98.9,89.4z M167.5,124.1l-101.1,9.7l-1.2,49.8l23.8-2.8
				l-2.7,115.5l55-7.5V175l21.6-2.8L167.5,124.1z M74.6,10.4c-1.2,1.4-1.7,2.7-1.7,4c0,1.3,0.6,2.6,1.7,4c1.2,1.4,2.9,2.1,5.2,2.1
				c2.1,0,3.8-0.7,5-2.1c1.2-1.4,1.7-2.7,1.7-4c0-1.3-0.6-2.6-1.7-4c-1.2-1.4-2.8-2.1-5-2.1C77.5,8.3,75.7,9,74.6,10.4z M154.1,20.6
				c-1,1-1.5,2-1.5,2.9c0,0.9,0.5,1.9,1.5,3c1,1.1,2.5,1.7,4.5,1.7c2,0,3.5-0.5,4.6-1.7c1.1-1.1,1.6-2.1,1.6-3
				c0-0.9-0.5-1.9-1.6-2.9c-1.1-1-2.6-1.5-4.6-1.5C156.6,19.1,155.1,19.6,154.1,20.6z"/>
			<path id="R" fill="#5D258E" d="M266.9,150.4c8.9-6.5,16.3-13.7,22.1-21.9c5.8-8.1,10-16.4,12.6-24.8s3.7-16.5,3.1-24.4
				c-0.6-7.8-2.9-14.9-6.8-21c-4-6.2-9.9-11-17.8-14.4c-7.9-3.4-20.7-4-38.4-1.8c0-0.2-3.8,0.1-11.5,1c-7.7,0.8-23.4,2.8-47.2,6
				l2.7,157.6l47.3,5.3l0.5-43.5l45.1,73.7l26.3-28L266.9,150.4z M242.6,90.1c2.8-0.1,4.9,0.4,6.2,1.5c1.3,1.1,2.2,2.7,2.7,4.7
				c0.5,2,0.7,3.7,0.5,5.1c-0.2,1.4-0.2,2.2-0.2,2.4c-0.2,1.5-0.8,3.3-2,5.5c-1.2,2.2-2.8,4.4-5,6.6c-2.1,2.2-4.7,3.9-7.7,5.1
				c-3,1.2-5.5-0.1-7.7-4l1.2-23.5C235.8,91.4,239.8,90.2,242.6,90.1z"/>
			<path id="U" fill="#60B200" d="M375.9,187.7l36.9-1.7l2.7-120.4l-45.1,3.9l1,71.2c0.2,3.7-0.4,6.1-1.7,7.3
				c-1.3,1.2-2.8,1.8-4.5,1.8c-2.1,0-3.8-0.6-5-1.9c-1.2-1.3-1.7-3.7-1.7-7.2l1.2-75l-43.9,3.9v84.7c0,11.1,2.9,19.7,8.7,25.9
				c5.8,6.2,13.6,9.3,23.5,9.3c7.4,0,13.9-1.6,19.3-4.9c5.5-3.2,8.4-5.6,8.9-7.1h-0.5V187.7z"/>
			<path id="M" fill="#FF0000" d="M430.6,201l44.8,32.4l16.8-57.9l29.2,50.1l24-46.8l19.1,63.4l46.3-41.8L565.9,62l-43.4,50.1
				l-45.1-63.7L430.6,201z"/>
			<path id="P" fill="#FFFF00" d="M628.6,106.3l2,155.1l41.6-4.2l-0.5-24.9c-8.8-9.2-8.4-12.5,1.1-9.8c9.5,2.7,16.2,4,20.2,4
				c7.9,0,15.1-1.8,21.6-5.5c6.4-3.7,11.9-8.4,16.4-14.3c4.5-5.8,7.8-12.4,10.2-19.8c2.3-7.4,3.5-15,3.5-23c0-7.2-1.1-14.4-3.3-21.7
				c-2.2-7.3-5.5-13.8-9.7-19.7c-4.2-5.8-9.5-10.6-15.7-14.4c-6.3-3.8-13.3-5.7-21.1-5.7c-6.3,0-14.6,2.8-25,8.4
				c-10.4,5.6-10.5,2.1-0.2-10.7v2.2L628.6,106.3z M684.1,183.4c-2.1,0.3-4.2,0.1-6.1-0.4c-1.9-0.6-3.6-1.6-5.1-3.1
				c-1.5-1.5-2.7-3.3-3.7-5.5c-2.3-5-2.4-10.1-0.4-15.4c2.1-5.3,5.7-9.3,10.8-12c4.8-2.6,9.2-3.2,13.1-1.8c4,1.4,6.8,4.3,8.7,8.7
				c2.1,4.8,2.2,9.9,0.2,15.2c-2,5.4-5.5,9.3-10.7,11.9C688.6,182.4,686.3,183.2,684.1,183.4z"/>
			<path id="F" fill="#FF00FF" d="M744.1,307.4l49.6-1.1l2-51.8l38.2-2.8l-2.7-42.4l-37.9,2.8l2-15.8l45.6-1.9l5.7-52.6L743.3,190
				L744.1,307.4z"/>
			<path id="Y_1_" fill="#29ABE2" d="M911.3,196l-9.9-36.3l-42.6,5.8l33.9,99.4l-15.6,47.1l44.1,3.9l38.7-152.3l-40.4-3.9l-7.4,36.3
				H911.3z"/>
		</g>
	</g>
</g>
</svg>
