<?xml version="1.0" encoding="utf-8"?>
<!-- Generator: Adobe Illustrator 19.2.1, SVG Export Plug-In . SVG Version: 6.00 Build 0)  -->
<svg version="1.1" id="Card_x5F_Back" xmlns="http://www.w3.org/2000/svg" xmlns:xlink="http://www.w3.org/1999/xlink" x="0px"
	 y="0px" viewBox="0 0 144 236" style="enable-background:new 0 0 144 236;" xml:space="preserve">
<g id="Back">
	<path id="Background" style="fill:#842089;" d="M131.5,0h-119C5.6,0,0,5.6,0,12.5v211c0,6.9,5.6,12.5,12.5,12.5h119
		c6.9,0,12.5-5.6,12.5-12.5v-211C144,5.6,138.4,0,131.5,0z"/>
	
		<linearGradient id="Back_x5F_light_1_" gradientUnits="userSpaceOnUse" x1="-5.366095e-002" y1="244.8006" x2="139.9264" y2="2.3481" gradientTransform="matrix(1 0 0 -1 0 238)">
		<stop  offset="0" style="stop-color:#DF6D3C"/>
		<stop  offset="0.5" style="stop-color:#7A7A7A;stop-opacity:0"/>
		<stop  offset="1" style="stop-color:#1F2051"/>
	</linearGradient>
	<path id="Back_x5F_light" style="opacity:0.55;fill:url(#Back_x5F_light_1_);enable-background:new    ;" d="M131.5,0h-119
		C5.6,0,0,5.6,0,12.5v211c0,6.9,5.6,12.5,12.5,12.5h119c6.9,0,12.5-5.6,12.5-12.5v-211C144,5.6,138.4,0,131.5,0z M138.1,62
		l-7.4,18.5l7.4,18.5l-7.4,18.5l7.4,18.5l-7.4,18.5l7.4,18.5l-7.4,18.5l7.4,18.5l-7.6,18.8l-7.6-18.8l7.4-18.5l-7.4-18.5l7.4-18.5
		l-7.4-18.5l7.4-18.5L122.9,99l7.4-18.5L122.9,62l7.4-18.5L122.9,25l7.6-18.8l7.6,18.8l-7.4,18.5L138.1,62z M6.3,173l7.4-18.5
		L6.3,136l7.4-18.5L6.3,99l7.4-18.5L6.3,62l7.4-18.5L6.3,25l7.6-18.8L21.4,25L14,43.5L21.4,62L14,80.5L21.4,99L14,117.5l7.4,18.5
		L14,154.5l7.4,18.5L14,191.5l7.4,18.5l-7.6,18.8L6.3,210l7.4-18.5L6.3,173z M118.1,62l-7.4,18.5l7.4,18.5l-7.4,18.5l7.4,18.5
		l-7.4,18.5l7.4,18.5l-7.4,18.5l7.4,18.5l-7.6,18.8l-7.6-18.8l7.4-18.5l-7.4-18.5l7.4-18.5l-7.4-18.5l7.4-18.5L102.9,99l7.4-18.5
		L102.9,62l7.4-18.5L102.9,25l7.6-18.8l7.6,18.8l-7.4,18.5L118.1,62z M99.4,62L92,80.5L99.4,99L92,117.5l7.4,18.5L92,154.5l7.4,18.5
		L92,191.5l7.4,18.5l-7.6,18.8L84.3,210l7.4-18.5L84.3,173l7.4-18.5L84.3,136l7.4-18.5L84.3,99l7.4-18.5L84.3,62l7.4-18.5L84.3,25
		l7.6-18.8L99.4,25L92,43.5L99.4,62z M79.6,62l-7.4,18.5L79.6,99l-7.4,18.5l7.4,18.5l-7.4,18.5l7.4,18.5l-7.4,18.5l7.4,18.5
		L72,228.8L64.4,210l7.4-18.5L64.4,173l7.4-18.5L64.4,136l7.4-18.5L64.4,99l7.4-18.5L64.4,62l7.4-18.5L64.4,25L72,6.2L79.6,25
		l-7.4,18.5L79.6,62z M60.1,62l-7.4,18.5L60.1,99l-7.4,18.5l7.4,18.5l-7.4,18.5l7.4,18.5l-7.4,18.5l7.4,18.5l-7.6,18.8L44.9,210
		l7.4-18.5L44.9,173l7.4-18.5L44.9,136l7.4-18.5L44.9,99l7.4-18.5L44.9,62l7.4-18.5L44.9,25l7.6-18.8L60.1,25l-7.4,18.5L60.1,62z
		 M40.1,62l-7.4,18.5L40.1,99l-7.4,18.5l7.4,18.5l-7.4,18.5l7.4,18.5l-7.4,18.5l7.4,18.5l-7.6,18.8L24.9,210l7.4-18.5L24.9,173
		l7.4-18.5L24.9,136l7.4-18.5L24.9,99l7.4-18.5L24.9,62l7.4-18.5L24.9,25l7.6-18.8L40.1,25l-7.4,18.5L40.1,62z"/>
	<polygon id="Diamond07" style="fill:#451249;" points="13.8,228.8 21.9,210 14,191.5 21.9,173 14,154.5 21.9,136 14,117.5 21.9,99 
		14,80.5 21.9,62 14,43.5 21.9,25 13.8,6.2 5.8,25 13.7,43.5 5.8,62 13.7,80.5 5.8,99 13.7,117.5 5.8,136 13.7,154.5 5.8,173 
		13.7,191.5 5.8,210 	"/>
	
		<linearGradient id="Diamond_x5F_light07_1_" gradientUnits="userSpaceOnUse" x1="-43.4901" y1="219.7242" x2="96.4899" y2="-22.7283" gradientTransform="matrix(1 0 0 -1 0 238)">
		<stop  offset="0" style="stop-color:#DF6D3C"/>
		<stop  offset="0.5" style="stop-color:#7A7A7A;stop-opacity:0"/>
		<stop  offset="1" style="stop-color:#1F2051"/>
	</linearGradient>
	<polygon id="Diamond_x5F_light07" style="opacity:0.55;fill:url(#Diamond_x5F_light07_1_);enable-background:new    ;" points="
		13.8,228.8 21.9,210 14,191.5 21.9,173 14,154.5 21.9,136 14,117.5 21.9,99 14,80.5 21.9,62 14,43.5 21.9,25 13.8,6.2 5.8,25 
		13.7,43.5 5.8,62 13.7,80.5 5.8,99 13.7,117.5 5.8,136 13.7,154.5 5.8,173 13.7,191.5 5.8,210 	"/>
	<polygon id="Diamond06" style="fill:#451249;" points="32.5,6.2 24.5,25 32.4,43.5 24.5,62 32.4,80.5 24.5,99 32.4,117.5 24.5,136 
		32.4,154.5 24.5,173 32.4,191.5 24.5,210 32.5,228.8 40.5,210 32.6,191.5 40.5,173 32.6,154.5 40.5,136 32.6,117.5 40.5,99 
		32.6,80.5 40.5,62 32.6,43.5 40.5,25 	"/>
	
		<linearGradient id="Diamond_x5F_light06_1_" gradientUnits="userSpaceOnUse" x1="-29.4621" y1="227.8216" x2="110.5179" y2="-14.6309" gradientTransform="matrix(1 0 0 -1 0 238)">
		<stop  offset="0" style="stop-color:#DF6D3C"/>
		<stop  offset="0.5" style="stop-color:#7A7A7A;stop-opacity:0"/>
		<stop  offset="1" style="stop-color:#1F2051"/>
	</linearGradient>
	<polygon id="Diamond_x5F_light06" style="opacity:0.55;fill:url(#Diamond_x5F_light06_1_);enable-background:new    ;" points="
		32.5,6.2 24.5,25 32.4,43.5 24.5,62 32.4,80.5 24.5,99 32.4,117.5 24.5,136 32.4,154.5 24.5,173 32.4,191.5 24.5,210 32.5,228.8 
		40.5,210 32.6,191.5 40.5,173 32.6,154.5 40.5,136 32.6,117.5 40.5,99 32.6,80.5 40.5,62 32.6,43.5 40.5,25 	"/>
	<polygon id="Diamond05" style="fill:#451249;" points="52.5,6.2 44.5,25 52.4,43.5 44.5,62 52.4,80.5 44.5,99 52.4,117.5 44.5,136 
		52.4,154.5 44.5,173 52.4,191.5 44.5,210 52.5,228.8 60.5,210 52.6,191.5 60.5,173 52.6,154.5 60.5,136 52.6,117.5 60.5,99 
		52.6,80.5 60.5,62 52.6,43.5 60.5,25 	"/>
	
		<linearGradient id="Diamond_x5F_light05_1_" gradientUnits="userSpaceOnUse" x1="-14.4621" y1="236.4819" x2="125.5179" y2="-5.9707" gradientTransform="matrix(1 0 0 -1 0 238)">
		<stop  offset="0" style="stop-color:#DF6D3C"/>
		<stop  offset="0.5" style="stop-color:#7A7A7A;stop-opacity:0"/>
		<stop  offset="1" style="stop-color:#1F2051"/>
	</linearGradient>
	<polygon id="Diamond_x5F_light05" style="opacity:0.55;fill:url(#Diamond_x5F_light05_1_);enable-background:new    ;" points="
		52.5,6.2 44.5,25 52.4,43.5 44.5,62 52.4,80.5 44.5,99 52.4,117.5 44.5,136 52.4,154.5 44.5,173 52.4,191.5 44.5,210 52.5,228.8 
		60.5,210 52.6,191.5 60.5,173 52.6,154.5 60.5,136 52.6,117.5 60.5,99 52.6,80.5 60.5,62 52.6,43.5 60.5,25 	"/>
	<polygon id="Diamond04" style="fill:#451249;" points="72,6.2 64,25 71.9,43.5 64,62 71.9,80.5 64,99 71.9,117.5 64,136 
		71.9,154.5 64,173 71.9,191.5 64,210 72,228.8 80,210 72.1,191.5 80,173 72.1,154.5 80,136 72.1,117.5 80,99 72.1,80.5 80,62 
		72.1,43.5 80,25 	"/>
	
		<linearGradient id="Diamond_x5F_light04_1_" gradientUnits="userSpaceOnUse" x1="0.1629" y1="244.9255" x2="140.1429" y2="2.473" gradientTransform="matrix(1 0 0 -1 0 238)">
		<stop  offset="0" style="stop-color:#DF6D3C"/>
		<stop  offset="0.5" style="stop-color:#7A7A7A;stop-opacity:0"/>
		<stop  offset="1" style="stop-color:#1F2051"/>
	</linearGradient>
	<polygon id="Diamond_x5F_light04" style="opacity:0.55;fill:url(#Diamond_x5F_light04_1_);enable-background:new    ;" points="
		72,6.2 64,25 71.9,43.5 64,62 71.9,80.5 64,99 71.9,117.5 64,136 71.9,154.5 64,173 71.9,191.5 64,210 72,228.8 80,210 72.1,191.5 
		80,173 72.1,154.5 80,136 72.1,117.5 80,99 72.1,80.5 80,62 72.1,43.5 80,25 	"/>
	<polygon id="Diamond03" style="fill:#451249;" points="91.8,6.2 83.9,25 91.7,43.5 83.9,62 91.7,80.5 83.9,99 91.7,117.5 83.9,136 
		91.7,154.5 83.9,173 91.7,191.5 83.9,210 91.8,228.8 99.9,210 92,191.5 99.9,173 92,154.5 99.9,136 92,117.5 99.9,99 92,80.5 
		99.9,62 92,43.5 99.9,25 	"/>
	
		<linearGradient id="Diamond_x5F_light03_1_" gradientUnits="userSpaceOnUse" x1="15.0099" y1="253.4992" x2="154.9899" y2="11.0467" gradientTransform="matrix(1 0 0 -1 0 238)">
		<stop  offset="0" style="stop-color:#DF6D3C"/>
		<stop  offset="0.5" style="stop-color:#7A7A7A;stop-opacity:0"/>
		<stop  offset="1" style="stop-color:#1F2051"/>
	</linearGradient>
	<polygon id="Diamond_x5F_light03" style="opacity:0.55;fill:url(#Diamond_x5F_light03_1_);enable-background:new    ;" points="
		91.8,6.2 83.9,25 91.7,43.5 83.9,62 91.7,80.5 83.9,99 91.7,117.5 83.9,136 91.7,154.5 83.9,173 91.7,191.5 83.9,210 91.8,228.8 
		99.9,210 92,191.5 99.9,173 92,154.5 99.9,136 92,117.5 99.9,99 92,80.5 99.9,62 92,43.5 99.9,25 	"/>
	<polygon id="Diamond02" style="fill:#451249;" points="110.5,6.2 102.5,25 110.4,43.5 102.5,62 110.4,80.5 102.5,99 110.4,117.5 
		102.5,136 110.4,154.5 102.5,173 110.4,191.5 102.5,210 110.5,228.8 118.5,210 110.6,191.5 118.5,173 110.6,154.5 118.5,136 
		110.6,117.5 118.5,99 110.6,80.5 118.5,62 110.6,43.5 118.5,25 	"/>
	
		<linearGradient id="Diamond_x5F_light02_1_" gradientUnits="userSpaceOnUse" x1="29.0379" y1="261.5966" x2="169.0179" y2="19.1441" gradientTransform="matrix(1 0 0 -1 0 238)">
		<stop  offset="0" style="stop-color:#DF6D3C"/>
		<stop  offset="0.5" style="stop-color:#7A7A7A;stop-opacity:0"/>
		<stop  offset="1" style="stop-color:#1F2051"/>
	</linearGradient>
	<polygon id="Diamond_x5F_light02" style="opacity:0.55;fill:url(#Diamond_x5F_light02_1_);enable-background:new    ;" points="
		110.5,6.2 102.5,25 110.4,43.5 102.5,62 110.4,80.5 102.5,99 110.4,117.5 102.5,136 110.4,154.5 102.5,173 110.4,191.5 102.5,210 
		110.5,228.8 118.5,210 110.6,191.5 118.5,173 110.6,154.5 118.5,136 110.6,117.5 118.5,99 110.6,80.5 118.5,62 110.6,43.5 
		118.5,25 	"/>
	<polygon id="Diamond01" style="fill:#451249;" points="130.5,6.2 122.5,25 130.4,43.5 122.5,62 130.4,80.5 122.5,99 130.4,117.5 
		122.5,136 130.4,154.5 122.5,173 130.4,191.5 122.5,210 130.5,228.8 138.5,210 130.6,191.5 138.5,173 130.6,154.5 138.5,136 
		130.6,117.5 138.5,99 130.6,80.5 138.5,62 130.6,43.5 138.5,25 	"/>
	
		<linearGradient id="Diamond_x5F_light01_1_" gradientUnits="userSpaceOnUse" x1="44.0379" y1="270.2569" x2="184.0179" y2="27.8043" gradientTransform="matrix(1 0 0 -1 0 238)">
		<stop  offset="0" style="stop-color:#DF6D3C"/>
		<stop  offset="0.5" style="stop-color:#7A7A7A;stop-opacity:0"/>
		<stop  offset="1" style="stop-color:#1F2051"/>
	</linearGradient>
	<polygon id="Diamond_x5F_light01" style="opacity:0.55;fill:url(#Diamond_x5F_light01_1_);enable-background:new    ;" points="
		130.5,6.2 122.5,25 130.4,43.5 122.5,62 130.4,80.5 122.5,99 130.4,117.5 122.5,136 130.4,154.5 122.5,173 130.4,191.5 122.5,210 
		130.5,228.8 138.5,210 130.6,191.5 138.5,173 130.6,154.5 138.5,136 130.6,117.5 138.5,99 130.6,80.5 138.5,62 130.6,43.5 
		138.5,25 	"/>
</g>
<g id="T">
	<path id="Glow" style="fill:#FFDA59;" d="M29.9,51.1c1.7,0,3.1,0.6,4.1,1.7c1,1.1,1.5,2.4,1.5,3.7S35,59,34,60.2s-2.4,1.7-4.1,1.7
		s-3-0.6-4-1.7c-1-1.2-1.6-2.4-1.6-3.7c0-1.4,0.5-2.6,1.6-3.7C26.9,51.6,28.2,51.1,29.9,51.1z M28.1,55.4c-0.4,0.4-0.6,0.8-0.6,1.1
		s0.2,0.7,0.6,1.1c0.4,0.4,1,0.7,1.8,0.7c0.9,0,1.5-0.2,1.8-0.7c0.4-0.4,0.5-0.8,0.5-1.1s-0.2-0.7-0.5-1.1c-0.4-0.4-1-0.7-1.8-0.7
		C29.1,54.7,28.5,54.9,28.1,55.4z M90.5,58.6L73.1,92.3v2.8l-22,0.5L32.3,63.4L55,74.7l4.5-18.3l9,17.9L90.5,58.6z M67.3,79.4
		l-6.7-13.5l-3.5,13.8l-16.1-8L52.9,92L70,91.6v-0.2l11.2-21.8L67.3,79.4z M98.2,118.8L89,120v49.6l-30.5,4.1l1.2-50.3l-10.4,1.1
		L50,95.4l50.8-4.8L98.2,118.8z M97.2,94.5l-44,4.2l-0.5,21.7l10.4-1.2l-1.2,50.3l24-3.3v-49.6l9.4-1.2L97.2,94.5z M59,40.5
		c1.9,0,3.4,0.7,4.5,2s1.7,2.8,1.7,4.3s-0.6,3-1.7,4.3c-1.1,1.3-2.6,2-4.5,2s-3.5-0.7-4.6-2s-1.7-2.8-1.7-4.3s0.6-3,1.7-4.3
		C55.5,41.1,57.1,40.5,59,40.5z M56.7,45c-0.5,0.6-0.8,1.2-0.8,1.7c0,0.6,0.3,1.1,0.8,1.7c0.5,0.6,1.3,0.9,2.3,0.9
		c0.9,0,1.7-0.3,2.2-0.9c0.5-0.6,0.8-1.2,0.8-1.7c0-0.6-0.3-1.1-0.8-1.7c-0.5-0.6-1.2-0.9-2.2-0.9S57.2,44.4,56.7,45z M93.3,45.2
		c1.7,0,3.1,0.6,4.3,1.7c1.1,1.1,1.7,2.4,1.7,3.9c0,1.4-0.6,2.8-1.7,3.9c-1.1,1.2-2.5,1.7-4.3,1.7s-3.1-0.6-4.2-1.7
		c-1.1-1.2-1.6-2.5-1.6-3.9s0.5-2.7,1.6-3.9C90.2,45.7,91.6,45.2,93.3,45.2z M91.4,49.5c-0.4,0.4-0.6,0.9-0.6,1.3
		c0,0.4,0.2,0.8,0.6,1.3s1.1,0.7,1.9,0.7c0.9,0,1.5-0.2,2-0.7s0.7-0.9,0.7-1.3c0-0.4-0.2-0.8-0.7-1.3c-0.5-0.4-1.1-0.7-2-0.7
		C92.5,48.8,91.8,49,91.4,49.5z"/>
	<path id="Outline" d="M28.9,50.1c1.7,0,3.1,0.6,4.1,1.7c1,1.1,1.5,2.4,1.5,3.7S34,58,33,59.2s-2.4,1.7-4.1,1.7s-3-0.6-4-1.7
		c-1-1.2-1.6-2.4-1.6-3.7c0-1.4,0.5-2.6,1.6-3.7C25.9,50.6,27.2,50.1,28.9,50.1z M27.1,54.4c-0.4,0.4-0.6,0.8-0.6,1.1
		s0.2,0.7,0.6,1.1c0.4,0.4,1,0.7,1.8,0.7c0.9,0,1.5-0.2,1.8-0.7c0.4-0.4,0.5-0.8,0.5-1.1s-0.2-0.7-0.5-1.1c-0.4-0.4-1-0.7-1.8-0.7
		S27.5,53.9,27.1,54.4z M89.5,57.6L72.1,91.3v2.8l-22,0.5L31.3,62.4L54,73.7l4.5-18.3l9,17.9L89.5,57.6z M66.3,78.4l-6.7-13.5
		l-3.5,13.8l-16.1-8L51.9,91L69,90.6v-0.2l11.2-21.8L66.3,78.4z M97.2,117.8L88,119v49.6l-30.5,4.1l1.2-50.3l-10.4,1.1L49,94.4
		l50.8-4.8L97.2,117.8z M96.2,93.5l-44,4.2l-0.5,21.7l10.4-1.2l-1.2,50.3l24-3.3v-49.6l9.4-1.2L96.2,93.5z M58,39.5
		c1.9,0,3.4,0.7,4.5,2s1.7,2.8,1.7,4.3s-0.6,3-1.7,4.3c-1.1,1.3-2.6,2-4.5,2s-3.5-0.7-4.6-2s-1.7-2.8-1.7-4.3s0.6-3,1.7-4.3
		C54.5,40.1,56.1,39.5,58,39.5z M55.7,44c-0.5,0.6-0.8,1.2-0.8,1.7c0,0.6,0.3,1.1,0.8,1.7c0.5,0.6,1.3,0.9,2.3,0.9
		c0.9,0,1.7-0.3,2.2-0.9c0.5-0.6,0.8-1.2,0.8-1.7c0-0.6-0.3-1.1-0.8-1.7c-0.5-0.6-1.2-0.9-2.2-0.9S56.2,43.4,55.7,44z M92.3,44.2
		c1.7,0,3.1,0.6,4.3,1.7c1.1,1.1,1.7,2.4,1.7,3.9c0,1.4-0.6,2.8-1.7,3.9c-1.1,1.2-2.5,1.7-4.3,1.7s-3.1-0.6-4.2-1.7
		c-1.1-1.2-1.6-2.5-1.6-3.9s0.5-2.7,1.6-3.9C89.2,44.7,90.6,44.2,92.3,44.2z M90.4,48.5c-0.4,0.4-0.6,0.9-0.6,1.3
		c0,0.4,0.2,0.8,0.6,1.3s1.1,0.7,1.9,0.7c0.9,0,1.5-0.2,2-0.7s0.7-0.9,0.7-1.3c0-0.4-0.2-0.8-0.7-1.3c-0.5-0.4-1.1-0.7-2-0.7
		C91.5,47.8,90.8,48,90.4,48.5z"/>
	<path id="fill" style="fill:#EF9C07;" d="M27.1,54.4c-0.4,0.4-0.6,0.8-0.6,1.1s0.2,0.7,0.6,1.1c0.4,0.4,1,0.7,1.8,0.7
		c0.9,0,1.5-0.2,1.8-0.7c0.4-0.4,0.5-0.8,0.5-1.1s-0.2-0.7-0.5-1.1c-0.4-0.4-1-0.7-1.8-0.7S27.5,53.9,27.1,54.4z M66.3,78.4
		l-6.7-13.5l-3.5,13.8l-16.1-8L51.9,91L69,90.6v-0.2l11.2-21.8L66.3,78.4z M96.2,93.5l-44,4.2l-0.5,21.7l10.4-1.2l-1.2,50.3l24-3.3
		v-49.6l9.4-1.2L96.2,93.5z M55.7,44c-0.5,0.6-0.8,1.2-0.8,1.7c0,0.6,0.3,1.2,0.8,1.7c0.5,0.6,1.3,0.9,2.3,0.9
		c0.9,0,1.7-0.3,2.2-0.9c0.5-0.6,0.8-1.2,0.8-1.7c0-0.6-0.3-1.1-0.8-1.7c-0.5-0.6-1.2-0.9-2.2-0.9S56.2,43.4,55.7,44z M90.4,48.4
		c-0.4,0.4-0.6,0.9-0.6,1.3c0,0.4,0.2,0.8,0.6,1.3s1.1,0.7,1.9,0.7c0.9,0,1.5-0.2,2-0.7s0.7-0.9,0.7-1.3c0-0.4-0.2-0.8-0.7-1.3
		c-0.5-0.4-1.1-0.7-2-0.7C91.5,47.8,90.8,48,90.4,48.4z"/>
</g>
<path id="Inner_Frame_9_" style="fill:none;stroke:#F2F2F2;stroke-width:3;stroke-miterlimit:10;" d="M131,233H13
	c-5.5,0-10-4.5-10-10V13C3,7.5,7.5,3,13,3h118c5.5,0,10,4.5,10,10v210C141,228.6,136.5,233,131,233z"/>
</svg>
