<?xml version="1.0" encoding="utf-8"?>
<!-- Generator: Adobe Illustrator 19.2.1, SVG Export Plug-In . SVG Version: 6.00 Build 0)  -->
<svg version="1.1" id="Layer_1" xmlns="http://www.w3.org/2000/svg" xmlns:xlink="http://www.w3.org/1999/xlink" x="0px" y="0px"
	 viewBox="0 0 142 233.3" style="enable-background:new 0 0 142 233.3;" xml:space="preserve">
<g>
	<g id="Inner_Frame_14_">
		<path style="opacity:0.25;fill:#1A1A1A;" d="M130,231.7H12c-5.5,0-10-4.5-10-10v-210c0-5.5,4.5-10,10-10h118c5.5,0,10,4.5,10,10
			v210C140,227.2,135.5,231.7,130,231.7z"/>
		<path style="fill:none;stroke:#333333;stroke-width:3;stroke-miterlimit:10;stroke-dasharray:11.9803,11.9803;" d="M130,231.7H12
			c-5.5,0-10-4.5-10-10v-210c0-5.5,4.5-10,10-10h118c5.5,0,10,4.5,10,10v210C140,227.2,135.5,231.7,130,231.7z"/>
	</g>
	<path id="T" style="opacity:0.3;" d="M26,57.1c-0.4,0.4-0.6,0.8-0.6,1.1c0,0.3,0.2,0.7,0.6,1.1c0.4,0.4,1,0.7,1.8,0.7
		c0.9,0,1.5-0.2,1.8-0.7c0.4-0.4,0.5-0.8,0.5-1.1c0-0.3-0.2-0.7-0.5-1.1c-0.4-0.4-1-0.7-1.8-0.7C26.9,56.4,26.3,56.7,26,57.1z
		 M65.2,81.2l-6.7-13.5L55,81.4l-16.1-8l11.8,20.3l17.1-0.4v-0.2L79,71.3L65.2,81.2z M95.1,96.2l-44,4.2l-0.5,21.7l10.4-1.2
		l-1.2,50.3l24-3.3v-49.6l9.4-1.2L95.1,96.2z M54.6,46.7c-0.5,0.6-0.8,1.2-0.8,1.7c0,0.6,0.3,1.1,0.8,1.7c0.5,0.6,1.3,0.9,2.3,0.9
		c0.9,0,1.7-0.3,2.2-0.9c0.5-0.6,0.8-1.2,0.8-1.7c0-0.6-0.3-1.1-0.8-1.7c-0.5-0.6-1.2-0.9-2.2-0.9C55.9,45.8,55.1,46.1,54.6,46.7z
		 M89.3,51.2c-0.4,0.4-0.6,0.9-0.6,1.3c0,0.4,0.2,0.8,0.6,1.3s1.1,0.7,1.9,0.7c0.9,0,1.5-0.2,2-0.7c0.5-0.5,0.7-0.9,0.7-1.3
		c0-0.4-0.2-0.8-0.7-1.3c-0.5-0.4-1.1-0.7-2-0.7C90.3,50.5,89.7,50.7,89.3,51.2z"/>
</g>
</svg>
