<?xml version="1.0" encoding="utf-8"?>
<!-- Generator: Adobe Illustrator 19.2.1, SVG Export Plug-In . SVG Version: 6.00 Build 0)  -->
<svg version="1.1" id="Logo" xmlns="http://www.w3.org/2000/svg" xmlns:xlink="http://www.w3.org/1999/xlink" x="0px" y="0px"
	 viewBox="0 0 257.5 90" style="enable-background:new 0 0 257.5 90;" xml:space="preserve">
<ellipse transform="matrix(0.9676 -0.2527 0.2527 0.9676 -8.2838 36.2034)" style="fill:#0D0C3D;" cx="136.8" cy="50.4" rx="83.1" ry="28"/>
<ellipse transform="matrix(0.9676 -0.2527 0.2527 0.9676 -8.2838 36.2034)" style="fill:#1B1464;" cx="136.8" cy="50.4" rx="63.1" ry="21.3"/>
<g id="Glow" style="opacity:0.75;">
	<path style="fill:#F9E373;" d="M6,9.2c1,0,1.9,0.3,2.5,1c0.6,0.7,0.9,1.4,0.9,2.3c0,0.8-0.3,1.5-0.9,2.2C7.8,15.4,7,15.7,6,15.7
		c-1,0-1.8-0.4-2.4-1.1c-0.6-0.7-0.9-1.4-0.9-2.2c0-0.8,0.3-1.6,0.9-2.3C4.2,9.5,5,9.2,6,9.2z M4.9,11.8c-0.2,0.3-0.4,0.5-0.4,0.7
		c0,0.2,0.1,0.4,0.4,0.7c0.2,0.3,0.6,0.4,1.1,0.4c0.5,0,0.9-0.1,1.1-0.4c0.2-0.3,0.3-0.5,0.3-0.7c0-0.2-0.1-0.4-0.3-0.7
		c-0.2-0.3-0.6-0.4-1.1-0.4C5.5,11.4,5.2,11.5,4.9,11.8z M42.5,13.7L32,34v1.7L18.8,36L7.5,16.6l13.6,6.8l2.7-11l5.4,10.7L42.5,13.7
		z M28.5,26.3l-4-8.1l-2.1,8.3l-9.7-4.8l7.1,12.2l10.3-0.2v-0.1l6.8-13.1L28.5,26.3z M47.1,49.9l-5.5,0.7v29.8L23.2,83l0.7-30.3
		l-6.2,0.7l0.5-17.5l30.6-2.9L47.1,49.9z M46.5,35.3L20,37.9l-0.3,13.1l6.2-0.7l-0.7,30.3l14.4-2V48.7l5.7-0.7L46.5,35.3z M23.5,2.8
		c1.1,0,2,0.4,2.7,1.2c0.7,0.8,1,1.7,1,2.6c0,0.9-0.3,1.8-1,2.6c-0.7,0.8-1.6,1.2-2.7,1.2c-1.2,0-2.1-0.4-2.8-1.2
		c-0.7-0.8-1-1.7-1-2.6c0-0.9,0.3-1.8,1-2.6C21.4,3.2,22.4,2.8,23.5,2.8z M22.2,5.5c-0.3,0.4-0.5,0.7-0.5,1.1c0,0.3,0.2,0.7,0.5,1.1
		c0.3,0.4,0.8,0.5,1.4,0.5c0.6,0,1-0.2,1.3-0.5c0.3-0.4,0.5-0.7,0.5-1.1c0-0.3-0.2-0.7-0.5-1.1C24.5,5.2,24.1,5,23.5,5
		C22.9,5,22.5,5.2,22.2,5.5z M44.2,5.7c1,0,1.9,0.3,2.6,1c0.7,0.7,1,1.5,1,2.3s-0.3,1.7-1,2.4c-0.7,0.7-1.5,1.1-2.6,1.1
		c-1,0-1.9-0.4-2.5-1.1c-0.6-0.7-1-1.5-1-2.4s0.3-1.6,1-2.3C42.3,6,43.1,5.7,44.2,5.7z M43,8.2c-0.3,0.3-0.4,0.5-0.4,0.8
		c0,0.2,0.1,0.5,0.4,0.8s0.6,0.4,1.2,0.4c0.5,0,0.9-0.1,1.2-0.4c0.3-0.3,0.4-0.6,0.4-0.8c0-0.2-0.1-0.5-0.4-0.8
		c-0.3-0.3-0.7-0.4-1.2-0.4C43.7,7.8,43.3,8,43,8.2z"/>
	<path style="fill:#F9E373;" d="M85.5,59.2L75.2,69.9l-9.5-15.8l-0.1,6.7l-16.2-1.9l-0.8-45.1c7.4-1,13.9-1.7,19.4-2.3
		c3.5-0.4,6.5-0.1,8.9,0.9c2.4,1,4.3,2.5,5.5,4.5c1.2,2,1.9,4.1,2.1,6.6c0.2,2.4-0.1,4.9-0.9,7.3c-0.8,2.5-2,4.9-3.6,7.2
		c-1.6,2.3-3.3,4-5.1,5.1L85.5,59.2z M72.6,42.2c2.3-1.7,4.3-3.6,5.8-5.7c1.5-2.1,2.6-4.3,3.3-6.5c0.7-2.2,1-4.3,0.8-6.4
		c-0.2-2.1-0.7-3.9-1.8-5.5c-1-1.6-2.6-2.9-4.7-3.8c-2.1-0.9-5.4-1.1-10.1-0.5c0,0-1,0-3,0.3c-2,0.2-6.1,0.7-12.4,1.6L51.3,57
		l12.4,1.4L63.8,47l11.8,19.3l6.9-7.3L72.6,42.2z M66.2,26.4c0.7,0,1.3,0.1,1.6,0.4c0.3,0.3,0.6,0.7,0.7,1.2c0.1,0.5,0.2,1,0.1,1.3
		c0,0.4-0.1,0.6-0.1,0.6c0,0.4-0.2,0.9-0.5,1.5c-0.3,0.6-0.7,1.2-1.3,1.7c-0.6,0.6-1.2,1-2,1.3c-0.8,0.3-1.5,0-2-1.1l0.3-6.2
		C64.4,26.8,65.5,26.5,66.2,26.4z M65,28.9l-0.4,6.5c-1.6-0.3-1.9-0.9-1.1-1.7c0.8-0.9,1.5-1.5,1.9-2c0.4-0.5,0.8-1.1,1.2-1.8
		c0,0,0-0.1,0.1-0.4c0-0.3,0-0.5,0-0.7c0-0.1-0.1-0.2,0-0.2c0,0-0.2,0-0.6,0C65.7,28.6,65.3,28.7,65,28.9z"/>
	<path style="fill:#F9E373;" d="M99.2,47.2h4.8c-0.9,2.9-2.3,4.8-4.1,5.9c-1.8,1.1-3.8,1.6-6.1,1.6c-3.1,0-5.6-1-7.5-3
		c-1.9-2-2.9-4.8-2.9-8.3V19.1l15.4-1.4l-0.3,22c0,0.3,0,0.5-0.1,0.4c-0.1-0.1-0.1-0.1-0.1-0.1C98.1,40.1,98,40,98,39.8l-0.3-20.7
		l15.8-1.4l-0.8,35.9l-13.5,0.7V47.2z M101.1,52l9.7-0.4l0.7-31.6l-11.8,1l0.3,18.7c0,1-0.1,1.6-0.5,1.9c-0.3,0.3-0.7,0.5-1.2,0.5
		c-0.6,0-1-0.2-1.3-0.5c-0.3-0.3-0.5-1-0.5-1.9L96.9,20l-11.5,1v22.2c0,2.9,0.8,5.2,2.3,6.8c1.5,1.6,3.6,2.4,6.2,2.4
		c1.9,0,3.6-0.4,5.1-1.3c1.4-0.8,2.2-1.5,2.3-1.9h-0.1V52z"/>
	<path style="fill:#F9E373;" d="M127.1,11L139.7,29l12-13.9L165.1,56l-15.3,14l-4.5-15l-5.7,11.1l-7.2-12.3l-4,13.5l-15.1-11
		L127.1,11z M115.5,55.5l11.8,8.5l4.4-15.2l7.7,13.1l6.3-12.3l5,16.6l12.1-11L151,19.1l-11.4,13.1l-11.8-16.7L115.5,55.5z"/>
	<path style="fill:#F9E373;" d="M180.1,27.3V30c1.5-1.8,2.1-2.6,2-2.6c-0.2,0.1,0.7,0.1,2.7,0.1c2.4,0,4.5,0.6,6.4,1.7
		c1.9,1.2,3.5,2.6,4.7,4.4c1.3,1.7,2.2,3.7,2.9,5.8c0.6,2.1,1,4.3,1,6.4c0,2.3-0.3,4.6-1,6.8c-0.7,2.2-1.7,4.1-3,5.9
		c-1.3,1.7-3,3.2-4.9,4.2s-4.1,1.6-6.5,1.6c-1.2,0-1.9,0-2.1-0.1c-0.2,0-0.7-0.5-1.6-1.5l0.3,9.5L166,73.7l-0.6-44.9L180.1,27.3z
		 M167.4,30.7l0.5,40.6l10.9-1.1l-0.1-6.5c-2.3-2.4-2.2-3.3,0.3-2.6c2.5,0.7,4.3,1.1,5.3,1.1c2.1,0,4-0.5,5.7-1.5
		c1.7-1,3.1-2.2,4.3-3.7c1.2-1.5,2.1-3.3,2.7-5.2c0.6-1.9,0.9-3.9,0.9-6c0-1.9-0.3-3.8-0.9-5.7c-0.6-1.9-1.4-3.6-2.5-5.2
		c-1.1-1.5-2.5-2.8-4.1-3.8c-1.6-1-3.5-1.5-5.5-1.5c-1.6,0-3.8,0.7-6.6,2.2c-2.7,1.5-2.8,0.5-0.1-2.8v0.6L167.4,30.7z M181.9,50.9
		c-0.6,0.1-1.1,0-1.6-0.1c-0.5-0.1-0.9-0.4-1.3-0.8c-0.4-0.4-0.7-0.9-1-1.5c-0.6-1.3-0.6-2.6-0.1-4c0.5-1.4,1.5-2.4,2.8-3.2
		c1.3-0.7,2.4-0.8,3.4-0.5c1,0.4,1.8,1.1,2.3,2.3c0.6,1.3,0.6,2.6,0.1,4c-0.5,1.4-1.5,2.4-2.8,3.1C183.1,50.6,182.5,50.8,181.9,50.9
		z M183,48.3c0.9-0.5,1.5-1.1,1.8-2c0.3-0.8,0.3-1.6,0-2.3c-0.3-0.6-0.6-1-1.2-1.2c-0.5-0.2-1.2-0.1-1.9,0.4c-0.9,0.5-1.5,1.1-1.9,2
		c-0.3,0.8-0.3,1.6,0,2.3c0.1,0.3,0.3,0.5,0.5,0.7c0.2,0.2,0.4,0.3,0.6,0.4c0.2,0.1,0.5,0.1,0.9,0.1C182.1,48.7,182.5,48.6,183,48.3
		z"/>
	<path style="fill:#F9E373;" d="M195.5,51.3l31.2-14.5l-1.9,19.1l-12,0.5l0.1-0.4l9.5-0.7l1,15.5l-10.2,0.7l-0.5,13.6l-16.8,0.4
		L195.5,51.3z M197.7,83.4l13-0.3l0.5-13.6l10-0.7l-0.7-11.1l-9.9,0.7l0.5-4.1l12-0.5l1.5-13.8l-27,12.6L197.7,83.4z"/>
	<path style="fill:#F9E373;" d="M239.3,56.4l2.8-14l14.7,1.5L245.5,88l-15.7-1.4l4.7-14.3L225,44.4l15.3-2.1l3.8,14.1H239.3z
		 M241.5,54.2l-2.6-9.5l-11.2,1.5l8.9,26.1l-4.1,12.3l11.6,1l10.1-39.9l-10.6-1l-1.9,9.5H241.5z"/>
</g>
<g id="Outline">
	<path d="M5,8.2c1,0,1.9,0.3,2.5,1c0.6,0.7,0.9,1.4,0.9,2.3c0,0.8-0.3,1.5-0.9,2.2C6.8,14.4,6,14.7,5,14.7c-1,0-1.8-0.4-2.4-1.1
		c-0.6-0.7-0.9-1.4-0.9-2.2c0-0.8,0.3-1.6,0.9-2.3C3.2,8.5,4,8.2,5,8.2z M3.9,10.8c-0.2,0.3-0.4,0.5-0.4,0.7c0,0.2,0.1,0.4,0.4,0.7
		c0.2,0.3,0.6,0.4,1.1,0.4c0.5,0,0.9-0.1,1.1-0.4c0.2-0.3,0.3-0.5,0.3-0.7c0-0.2-0.1-0.4-0.3-0.7c-0.2-0.3-0.6-0.4-1.1-0.4
		C4.5,10.4,4.2,10.5,3.9,10.8z M41.5,12.7L31,33v1.7L17.8,35L6.5,15.6l13.6,6.8l2.7-11l5.4,10.7L41.5,12.7z M27.5,25.3l-4-8.1
		l-2.1,8.3l-9.7-4.8l7.1,12.2l10.3-0.2v-0.1l6.8-13.1L27.5,25.3z M46.1,48.9l-5.5,0.7v29.8L22.2,82l0.7-30.3l-6.2,0.7l0.5-17.5
		l30.6-2.9L46.1,48.9z M45.5,34.3L19,36.9l-0.3,13.1l6.2-0.7l-0.7,30.3l14.4-2V47.7l5.7-0.7L45.5,34.3z M22.5,1.8
		c1.1,0,2,0.4,2.7,1.2c0.7,0.8,1,1.7,1,2.6c0,0.9-0.3,1.8-1,2.6c-0.7,0.8-1.6,1.2-2.7,1.2c-1.2,0-2.1-0.4-2.8-1.2
		c-0.7-0.8-1-1.7-1-2.6c0-0.9,0.3-1.8,1-2.6C20.4,2.2,21.4,1.8,22.5,1.8z M21.2,4.5c-0.3,0.4-0.5,0.7-0.5,1.1c0,0.3,0.2,0.7,0.5,1.1
		c0.3,0.4,0.8,0.5,1.4,0.5c0.6,0,1-0.2,1.3-0.5c0.3-0.4,0.5-0.7,0.5-1.1c0-0.3-0.2-0.7-0.5-1.1C23.5,4.2,23.1,4,22.5,4
		C21.9,4,21.5,4.2,21.2,4.5z M43.2,4.7c1,0,1.9,0.3,2.6,1c0.7,0.7,1,1.5,1,2.3s-0.3,1.7-1,2.4c-0.7,0.7-1.5,1.1-2.6,1.1
		c-1,0-1.9-0.4-2.5-1.1c-0.6-0.7-1-1.5-1-2.4s0.3-1.6,1-2.3C41.3,5,42.1,4.7,43.2,4.7z M42,7.2c-0.3,0.3-0.4,0.5-0.4,0.8
		c0,0.2,0.1,0.5,0.4,0.8s0.6,0.4,1.2,0.4c0.5,0,0.9-0.1,1.2-0.4c0.3-0.3,0.4-0.6,0.4-0.8c0-0.2-0.1-0.5-0.4-0.8
		c-0.3-0.3-0.7-0.4-1.2-0.4C42.7,6.8,42.3,7,42,7.2z"/>
	<path d="M84.5,58.2L74.2,68.9l-9.5-15.8l-0.1,6.7l-16.2-1.9l-0.8-45.1c7.4-1,13.9-1.7,19.4-2.3c3.5-0.4,6.5-0.1,8.9,0.9
		c2.4,1,4.3,2.5,5.5,4.5c1.2,2,1.9,4.1,2.1,6.6c0.2,2.4-0.1,4.9-0.9,7.3c-0.8,2.5-2,4.9-3.6,7.2c-1.6,2.3-3.3,4-5.1,5.1L84.5,58.2z
		 M71.6,41.2c2.3-1.7,4.3-3.6,5.8-5.7c1.5-2.1,2.6-4.3,3.3-6.5c0.7-2.2,1-4.3,0.8-6.4c-0.2-2.1-0.7-3.9-1.8-5.5
		c-1-1.6-2.6-2.9-4.7-3.8c-2.1-0.9-5.4-1.1-10.1-0.5c0,0-1,0-3,0.3c-2,0.2-6.1,0.7-12.4,1.6L50.3,56l12.4,1.4L62.8,46l11.8,19.3
		l6.9-7.3L71.6,41.2z M65.2,25.4c0.7,0,1.3,0.1,1.6,0.4c0.3,0.3,0.6,0.7,0.7,1.2c0.1,0.5,0.2,1,0.1,1.3c0,0.4-0.1,0.6-0.1,0.6
		c0,0.4-0.2,0.9-0.5,1.5c-0.3,0.6-0.7,1.2-1.3,1.7c-0.6,0.6-1.2,1-2,1.3c-0.8,0.3-1.5,0-2-1.1l0.3-6.2
		C63.4,25.8,64.5,25.5,65.2,25.4z M64,27.9l-0.4,6.5c-1.6-0.3-1.9-0.9-1.1-1.7c0.8-0.9,1.5-1.5,1.9-2c0.4-0.5,0.8-1.1,1.2-1.8
		c0,0,0-0.1,0.1-0.4c0-0.3,0-0.5,0-0.7c0-0.1-0.1-0.2,0-0.2c0,0-0.2,0-0.6,0C64.7,27.6,64.3,27.7,64,27.9z"/>
	<path d="M98.2,46.2h4.8c-0.9,2.9-2.3,4.8-4.1,5.9c-1.8,1.1-3.8,1.6-6.1,1.6c-3.1,0-5.6-1-7.5-3c-1.9-2-2.9-4.8-2.9-8.3V18.1
		l15.4-1.4l-0.3,22c0,0.3,0,0.5-0.1,0.4c-0.1-0.1-0.1-0.1-0.1-0.1C97.1,39.1,97,39,97,38.8l-0.3-20.7l15.8-1.4l-0.8,35.9l-13.5,0.7
		V46.2z M100.1,51l9.7-0.4l0.7-31.6l-11.8,1L99,38.7c0,1-0.1,1.6-0.5,1.9c-0.3,0.3-0.7,0.5-1.2,0.5c-0.6,0-1-0.2-1.3-0.5
		c-0.3-0.3-0.5-1-0.5-1.9L95.9,19l-11.5,1v22.2c0,2.9,0.8,5.2,2.3,6.8c1.5,1.6,3.6,2.4,6.2,2.4c1.9,0,3.6-0.4,5.1-1.3
		c1.4-0.8,2.2-1.5,2.3-1.9h-0.1V51z"/>
	<path d="M126.1,10L138.7,28l12-13.9L164.1,55l-15.3,14l-4.5-15l-5.7,11.1l-7.2-12.3l-4,13.5l-15.1-11L126.1,10z M114.5,54.5
		l11.8,8.5l4.4-15.2l7.7,13.1l6.3-12.3l5,16.6l12.1-11L150,18.1l-11.4,13.1l-11.8-16.7L114.5,54.5z"/>
	<path d="M179.1,26.3V29c1.5-1.8,2.1-2.6,2-2.6c-0.2,0.1,0.7,0.1,2.7,0.1c2.4,0,4.5,0.6,6.4,1.7c1.9,1.2,3.5,2.6,4.7,4.4
		c1.3,1.7,2.2,3.7,2.9,5.8c0.6,2.1,1,4.3,1,6.4c0,2.3-0.3,4.6-1,6.8c-0.7,2.2-1.7,4.1-3,5.9c-1.3,1.7-3,3.2-4.9,4.2
		s-4.1,1.6-6.5,1.6c-1.2,0-1.9,0-2.1-0.1c-0.2,0-0.7-0.5-1.6-1.5l0.3,9.5L165,72.7l-0.6-44.9L179.1,26.3z M166.4,29.7l0.5,40.6
		l10.9-1.1l-0.1-6.5c-2.3-2.4-2.2-3.3,0.3-2.6c2.5,0.7,4.3,1.1,5.3,1.1c2.1,0,4-0.5,5.7-1.5c1.7-1,3.1-2.2,4.3-3.7
		c1.2-1.5,2.1-3.3,2.7-5.2c0.6-1.9,0.9-3.9,0.9-6c0-1.9-0.3-3.8-0.9-5.7c-0.6-1.9-1.4-3.6-2.5-5.2c-1.1-1.5-2.5-2.8-4.1-3.8
		c-1.6-1-3.5-1.5-5.5-1.5c-1.6,0-3.8,0.7-6.6,2.2c-2.7,1.5-2.8,0.5-0.1-2.8v0.6L166.4,29.7z M180.9,49.9c-0.6,0.1-1.1,0-1.6-0.1
		c-0.5-0.1-0.9-0.4-1.3-0.8c-0.4-0.4-0.7-0.9-1-1.5c-0.6-1.3-0.6-2.6-0.1-4c0.5-1.4,1.5-2.4,2.8-3.2c1.3-0.7,2.4-0.8,3.4-0.5
		c1,0.4,1.8,1.1,2.3,2.3c0.6,1.3,0.6,2.6,0.1,4c-0.5,1.4-1.5,2.4-2.8,3.1C182.1,49.6,181.5,49.8,180.9,49.9z M182,47.3
		c0.9-0.5,1.5-1.1,1.8-2c0.3-0.8,0.3-1.6,0-2.3c-0.3-0.6-0.6-1-1.2-1.2c-0.5-0.2-1.2-0.1-1.9,0.4c-0.9,0.5-1.5,1.1-1.9,2
		c-0.3,0.8-0.3,1.6,0,2.3c0.1,0.3,0.3,0.5,0.5,0.7c0.2,0.2,0.4,0.3,0.6,0.4c0.2,0.1,0.5,0.1,0.9,0.1C181.1,47.7,181.5,47.6,182,47.3
		z"/>
	<path d="M194.5,50.3l31.2-14.5l-1.9,19.1l-12,0.5l0.1-0.4l9.5-0.7l1,15.5l-10.2,0.7l-0.5,13.6l-16.8,0.4L194.5,50.3z M196.7,82.4
		l13-0.3l0.5-13.6l10-0.7l-0.7-11.1l-9.9,0.7l0.5-4.1l12-0.5l1.5-13.8l-27,12.6L196.7,82.4z"/>
	<path d="M238.3,55.4l2.8-14l14.7,1.5L244.5,87l-15.7-1.4l4.7-14.3L224,43.4l15.3-2.1l3.8,14.1H238.3z M240.5,53.2l-2.6-9.5
		l-11.2,1.5l8.9,26.1l-4.1,12.3l11.6,1l10.1-39.9l-10.6-1l-1.9,9.5H240.5z"/>
</g>
<g id="Color">
	<path style="fill:#EF9C07;" d="M3.9,10.8c-0.2,0.3-0.4,0.5-0.4,0.7c0,0.2,0.1,0.4,0.4,0.7c0.2,0.3,0.6,0.4,1.1,0.4
		c0.5,0,0.9-0.1,1.1-0.4c0.2-0.3,0.3-0.5,0.3-0.7c0-0.2-0.1-0.4-0.3-0.7c-0.2-0.3-0.6-0.4-1.1-0.4C4.5,10.4,4.2,10.5,3.9,10.8z
		 M27.5,25.3l-4-8.1l-2.1,8.3l-9.7-4.8l7.1,12.2l10.3-0.2v-0.1l6.8-13.1L27.5,25.3z M45.5,34.3L19,36.9l-0.3,13.1l6.2-0.7l-0.7,30.3
		l14.4-2V47.7l5.7-0.7L45.5,34.3z M21.2,4.5c-0.3,0.4-0.5,0.7-0.5,1c0,0.3,0.2,0.7,0.5,1.1c0.3,0.4,0.8,0.5,1.4,0.5
		c0.6,0,1-0.2,1.3-0.5c0.3-0.4,0.5-0.7,0.5-1.1c0-0.3-0.2-0.7-0.5-1C23.5,4.2,23.1,4,22.5,4C21.9,4,21.5,4.2,21.2,4.5z M42,7.2
		c-0.3,0.3-0.4,0.5-0.4,0.8c0,0.2,0.1,0.5,0.4,0.8c0.3,0.3,0.6,0.4,1.2,0.4c0.5,0,0.9-0.1,1.2-0.4c0.3-0.3,0.4-0.6,0.4-0.8
		c0-0.2-0.1-0.5-0.4-0.8c-0.3-0.3-0.7-0.4-1.2-0.4C42.7,6.8,42.3,7,42,7.2z"/>
	<path style="fill:#5D258E;" d="M71.6,41.2c2.3-1.7,4.3-3.6,5.8-5.7c1.5-2.1,2.6-4.3,3.3-6.5c0.7-2.2,1-4.3,0.8-6.4
		c-0.2-2.1-0.7-3.9-1.8-5.5s-2.6-2.9-4.7-3.8c-2.1-0.9-5.4-1-10.1-0.5c0,0-1,0-3,0.3c-2,0.2-6.1,0.7-12.4,1.6L50.3,56l12.4,1.4
		L62.8,46l11.8,19.3l6.9-7.3L71.6,41.2z M65.2,25.4c0.7,0,1.3,0.1,1.6,0.4c0.3,0.3,0.6,0.7,0.7,1.2c0.1,0.5,0.2,1,0.1,1.3
		c0,0.4-0.1,0.6-0.1,0.6c0,0.4-0.2,0.9-0.5,1.5c-0.3,0.6-0.7,1.2-1.3,1.7c-0.6,0.6-1.2,1-2,1.3c-0.8,0.3-1.5,0-2-1.1l0.3-6.2
		C63.4,25.8,64.5,25.5,65.2,25.4z"/>
	<path style="fill:#60B200;" d="M100.1,51l9.7-0.4l0.7-31.6l-11.8,1L99,38.7c0,1-0.1,1.6-0.5,1.9c-0.3,0.3-0.7,0.5-1.2,0.5
		c-0.6,0-1-0.2-1.3-0.5c-0.3-0.3-0.5-1-0.5-1.9L95.9,19l-11.5,1v22.2c0,2.9,0.8,5.2,2.3,6.8c1.5,1.6,3.6,2.4,6.2,2.4
		c1.9,0,3.6-0.4,5.1-1.3c1.4-0.8,2.2-1.5,2.3-1.8h-0.1V51z"/>
	<path style="fill:#FF0000;" d="M114.5,54.5l11.8,8.5l4.4-15.2l7.7,13.1l6.3-12.3l5,16.6l12.1-11L150,18.1l-11.4,13.1l-11.8-16.7
		L114.5,54.5z"/>
	<path style="fill:#FFFF00;" d="M166.4,29.7l0.5,40.6l10.9-1.1l-0.1-6.5c-2.3-2.4-2.2-3.3,0.3-2.6c2.5,0.7,4.3,1,5.3,1
		c2.1,0,4-0.5,5.7-1.4c1.7-1,3.1-2.2,4.3-3.7c1.2-1.5,2.1-3.3,2.7-5.2c0.6-1.9,0.9-3.9,0.9-6c0-1.9-0.3-3.8-0.9-5.7
		c-0.6-1.9-1.4-3.6-2.5-5.2c-1.1-1.5-2.5-2.8-4.1-3.8c-1.6-1-3.5-1.5-5.5-1.5c-1.6,0-3.8,0.7-6.6,2.2c-2.7,1.5-2.8,0.5-0.1-2.8v0.6
		L166.4,29.7z M180.9,49.9c-0.6,0.1-1.1,0-1.6-0.1c-0.5-0.1-0.9-0.4-1.3-0.8c-0.4-0.4-0.7-0.9-1-1.4c-0.6-1.3-0.6-2.7-0.1-4
		c0.5-1.4,1.5-2.4,2.8-3.2c1.3-0.7,2.4-0.8,3.4-0.5c1,0.4,1.8,1.1,2.3,2.3c0.6,1.3,0.6,2.6,0.1,4c-0.5,1.4-1.5,2.4-2.8,3.1
		C182.1,49.6,181.5,49.8,180.9,49.9z"/>
	<path style="fill:#FF00FF;" d="M196.7,82.4l13-0.3l0.5-13.6l10-0.7l-0.7-11.1l-9.9,0.7l0.5-4.1l12-0.5l1.5-13.8l-27,12.6
		L196.7,82.4z"/>
	<path style="fill:#29ABE2;" d="M240.5,53.2l-2.6-9.5l-11.2,1.5l8.9,26.1l-4.1,12.3l11.6,1l10.1-39.9l-10.6-1l-1.9,9.5H240.5z"/>
</g>
</svg>
