<?xml version="1.0" encoding="utf-8"?>
<!-- Generator: Adobe Illustrator 19.2.1, SVG Export Plug-In . SVG Version: 6.00 Build 0)  -->
<svg version="1.1" id="Pattern" xmlns="http://www.w3.org/2000/svg" xmlns:xlink="http://www.w3.org/1999/xlink" x="0px" y="0px"
	 viewBox="1 1 196.9 156" enable-background="new 1 1 196.9 156" xml:space="preserve">
<rect id="Background" opacity="0.8" fill="#B27D44" width="198.9" height="158"/>
<g id="Crown02">
	<path fill="#FBB03B" d="M102.2,129.9c-0.6-0.6-0.9-1.2-0.9-1.6c0-0.5,0.3-1,0.8-1.6c0.6-0.6,1.4-1,2.5-1c1.2,0,2.1,0.3,2.6,0.9
		c0.5,0.6,0.8,1.2,0.8,1.6c0,0.5-0.2,1-0.7,1.6c-0.5,0.6-1.4,1-2.6,1C103.6,130.8,102.7,130.5,102.2,129.9z"/>
	<polygon fill="#FBB03B" points="157.4,94.7 148.2,114.1 142.9,94.6 120.3,106.3 136.5,77.2 160.8,77.3 160.8,77.7 177.3,108.4 	"/>
	<path fill="#FBB03B" d="M143.2,144c-0.7-0.8-1.1-1.7-1.1-2.5c0-0.8,0.3-1.6,1-2.5c0.7-0.9,1.8-1.3,3.2-1.3c1.3,0,2.4,0.4,3.1,1.2
		c0.7,0.8,1.1,1.7,1.1,2.5c0,0.8-0.3,1.6-1,2.5c-0.7,0.9-1.7,1.3-3,1.3C145,145.2,143.9,144.8,143.2,144z"/>
	<path fill="#FBB03B" d="M192.4,136.8c-0.6-0.6-0.9-1.2-1-1.8c0-0.6,0.3-1.2,0.9-1.9c0.6-0.7,1.5-1.1,2.7-1.1c1.2,0,2.2,0.3,2.9,1
		c0.7,0.7,1,1.3,1,1.9c0,0.6-0.3,1.2-1,1.8c-0.7,0.6-1.6,1-2.8,1C193.9,137.7,193,137.4,192.4,136.8z"/>
</g>
<g id="Crown01">
	<path fill="#FBB03B" d="M3.8,38C3.3,38.7,3,39.2,3,39.7c0,0.5,0.3,1,0.8,1.6c0.6,0.6,1.4,0.9,2.5,0.9c1.2,0,2.1-0.3,2.6-0.9
		c0.5-0.6,0.8-1.2,0.8-1.6c0-0.5-0.3-1-0.8-1.6c-0.5-0.6-1.4-0.9-2.6-0.9C5.3,37.1,4.4,37.4,3.8,38z"/>
	<polygon fill="#FBB03B" points="59.7,72.3 50.1,53.1 45.2,72.6 22.3,61.3 39.1,90.1 63.4,89.6 63.4,89.3 79.3,58.2 	"/>
	<path fill="#FBB03B" d="M44.6,23.3c-0.7,0.9-1.1,1.7-1.1,2.5c0,0.8,0.4,1.6,1.1,2.5c0.7,0.9,1.8,1.3,3.2,1.3c1.3,0,2.4-0.4,3.1-1.3
		c0.7-0.9,1.1-1.7,1.1-2.5c0-0.8-0.4-1.6-1.1-2.5c-0.7-0.9-1.7-1.3-3.1-1.3C46.4,22,45.3,22.4,44.6,23.3z"/>
	<path fill="#FBB03B" d="M93.9,29.6c-0.6,0.6-0.9,1.2-0.9,1.8c0,0.6,0.3,1.2,0.9,1.9c0.6,0.7,1.5,1,2.8,1c1.2,0,2.2-0.3,2.8-1
		c0.7-0.7,1-1.3,1-1.9c0-0.6-0.3-1.2-1-1.8c-0.7-0.6-1.6-0.9-2.8-0.9C95.5,28.7,94.5,29,93.9,29.6z"/>
</g>
</svg>
