<?xml version="1.0" encoding="iso-8859-1"?>
<!-- Generator: Adobe Illustrator 19.2.1, SVG Export Plug-In . SVG Version: 6.00 Build 0)  -->
<svg version="1.1" id="Layer_1" xmlns="http://www.w3.org/2000/svg" xmlns:xlink="http://www.w3.org/1999/xlink" x="0px" y="0px"
	 viewBox="0 0 155 50.9" style="enable-background:new 0 0 155 50.9;" xml:space="preserve">
<g>
	<path d="M143,50.9H12c-6.6,0-12-5.4-12-12v-27c0-6.6,5.4-12,12-12h131c6.6,0,12,5.4,12,12v27C155,45.5,149.6,50.9,143,50.9z"/>
	<path style="fill:#FBB03B;" d="M143.6,47.3H11.3c-4.3,0-7.8-3.5-7.8-7.8V11.4C3.5,7,7,3.5,11.3,3.5h132.3c4.3,0,7.8,3.5,7.8,7.8
		v28.2C151.5,43.8,147.9,47.3,143.6,47.3z"/>
	<path style="fill:none;stroke:#D38318;stroke-width:4;stroke-linecap:round;stroke-miterlimit:10;" d="M149.5,11.8v28.8
		c0,2.8-2.3,5.2-5.1,5.2h-132"/>
	<path style="fill:none;stroke:#FCC47A;stroke-width:4;stroke-linecap:round;stroke-miterlimit:10;" d="M5.3,37.7V11.5
		c0-3.2,2.6-5.7,5.7-5.7h131.4"/>
	<text transform="matrix(0.9977 0 0 1 14.9365 32.7075)" style="font-family:'Verdana'; font-size:21.6786px;">Start Game</text>
</g>
<g style="display:none;">
	<path style="display:inline;" d="M143,50.9H12c-6.6,0-12-5.4-12-12V12C0,5.4,5.4,0,12,0h131c6.6,0,12,5.4,12,12v26.9
		C155,45.5,149.6,50.9,143,50.9z"/>
	<path style="display:inline;fill:#FFA412;" d="M143.6,47.3H11.3c-4.3,0-7.8-3.5-7.8-7.8V11.4c0-4.3,3.5-7.8,7.8-7.8h132.3
		c4.3,0,7.8,3.5,7.8,7.8v28.1C151.5,43.8,147.9,47.3,143.6,47.3z"/>
	<path style="display:inline;fill:none;stroke:#C17417;stroke-width:4;stroke-linecap:round;stroke-miterlimit:10;" d="M149.5,9.9
		v30.7c0,2.8-2.3,5.1-5.1,5.1h-132"/>
	<path style="display:inline;fill:none;stroke:#FCC47A;stroke-width:4;stroke-linecap:round;stroke-miterlimit:10;" d="M5.3,37.7
		V11.6c0-3.2,2.6-5.7,5.7-5.7h131.4"/>
	
		<text transform="matrix(1 0 0 1 14.8304 33.5262)" style="display:inline;stroke:#000000;stroke-miterlimit:10; font-family:'Verdana'; font-size:21.6248px;">Start Game</text>
</g>
<g style="display:none;">
	<path style="display:inline;" d="M143,50.9H12c-6.6,0-12-5.4-12-12V12C0,5.4,5.4,0,12,0h131c6.6,0,12,5.4,12,12v26.9
		C155,45.5,149.6,50.9,143,50.9z"/>
	<path style="display:inline;fill:#D38318;" d="M143.6,47.3H11.3c-4.3,0-7.8-3.5-7.8-7.8V11.4c0-4.3,3.5-7.8,7.8-7.8h132.3
		c4.3,0,7.8,3.5,7.8,7.8v28.1C151.5,43.8,147.9,47.3,143.6,47.3z"/>
	
		<text transform="matrix(1 0 0 1 14.9518 32.7211)" style="display:inline;fill:#4D4D4D; font-family:'Verdana'; font-size:21.6248px;">Start Game</text>
	<path style="display:inline;fill:none;stroke:#9B692C;stroke-width:4;stroke-linecap:round;stroke-miterlimit:10;" d="M5.5,38.3
		v-28c0-2.7,2.2-4.9,4.9-4.9h132.2"/>
	<path style="display:inline;fill:none;stroke:#9B692C;stroke-width:4;stroke-linecap:round;stroke-miterlimit:10;" d="M149.6,12.4
		v28c0,2.7-2.2,4.9-4.9,4.9H12.5"/>
</g>
</svg>
